<svg id="visual" viewBox="0 0 900 600" width="900" height="600" xmlns="http://www.w3.org/2000/svg" xmlns:xlink="http://www.w3.org/1999/xlink" version="1.1"><rect x="0" y="0" width="900" height="600" fill="#f3d5de"></rect><path d="M0 436L21.5 424.3C43 412.7 86 389.3 128.8 382.3C171.7 375.3 214.3 384.7 257.2 386.7C300 388.7 343 383.3 385.8 385.8C428.7 388.3 471.3 398.7 514.2 403.3C557 408 600 407 642.8 403.5C685.7 400 728.3 394 771.2 389C814 384 857 380 878.5 378L900 376L900 601L878.5 601C857 601 814 601 771.2 601C728.3 601 685.7 601 642.8 601C600 601 557 601 514.2 601C471.3 601 428.7 601 385.8 601C343 601 300 601 257.2 601C214.3 601 171.7 601 128.8 601C86 601 43 601 21.5 601L0 601Z" fill="#fa7268"></path><path d="M0 474L21.5 467.7C43 461.3 86 448.7 128.8 437.8C171.7 427 214.3 418 257.2 425.3C300 432.7 343 456.3 385.8 454C428.7 451.7 471.3 423.3 514.2 413.2C557 403 600 411 642.8 412.2C685.7 413.3 728.3 407.7 771.2 409.7C814 411.7 857 421.3 878.5 426.2L900 431L900 601L878.5 601C857 601 814 601 771.2 601C728.3 601 685.7 601 642.8 601C600 601 557 601 514.2 601C471.3 601 428.7 601 385.8 601C343 601 300 601 257.2 601C214.3 601 171.7 601 128.8 601C86 601 43 601 21.5 601L0 601Z" fill="#ef5f67"></path><path d="M0 478L21.5 480.7C43 483.3 86 488.7 128.8 485.3C171.7 482 214.3 470 257.2 463.5C300 457 343 456 385.8 462.2C428.7 468.3 471.3 481.7 514.2 485.5C557 489.3 600 483.7 642.8 479C685.7 474.3 728.3 470.7 771.2 467.2C814 463.7 857 460.3 878.5 458.7L900 457L900 601L878.5 601C857 601 814 601 771.2 601C728.3 601 685.7 601 642.8 601C600 601 557 601 514.2 601C471.3 601 428.7 601 385.8 601C343 601 300 601 257.2 601C214.3 601 171.7 601 128.8 601C86 601 43 601 21.5 601L0 601Z" fill="#e34c67"></path><path d="M0 497L21.5 499.7C43 502.3 86 507.7 128.8 507.3C171.7 507 214.3 501 257.2 495.7C300 490.3 343 485.7 385.8 488.5C428.7 491.3 471.3 501.7 514.2 509.8C557 518 600 524 642.8 527.7C685.7 531.3 728.3 532.7 771.2 533.8C814 535 857 536 878.5 536.5L900 537L900 601L878.5 601C857 601 814 601 771.2 601C728.3 601 685.7 601 642.8 601C600 601 557 601 514.2 601C471.3 601 428.7 601 385.8 601C343 601 300 601 257.2 601C214.3 601 171.7 601 128.8 601C86 601 43 601 21.5 601L0 601Z" fill="#d53867"></path><path d="M0 571L21.5 566.7C43 562.3 86 553.7 128.8 548.3C171.7 543 214.3 541 257.2 538.5C300 536 343 533 385.8 536C428.7 539 471.3 548 514.2 552.5C557 557 600 557 642.8 557C685.7 557 728.3 557 771.2 556.5C814 556 857 555 878.5 554.5L900 554L900 601L878.5 601C857 601 814 601 771.2 601C728.3 601 685.7 601 642.8 601C600 601 557 601 514.2 601C471.3 601 428.7 601 385.8 601C343 601 300 601 257.2 601C214.3 601 171.7 601 128.8 601C86 601 43 601 21.5 601L0 601Z" fill="#c62368"></path></svg>